<?xml version="1.0" encoding="iso-8859-1"?>
<!-- Generator: Adobe Illustrator 16.0.0, SVG Export Plug-In . SVG Version: 6.00 Build 0)  -->
<!DOCTYPE svg PUBLIC "-//W3C//DTD SVG 1.1//EN" "http://www.w3.org/Graphics/SVG/1.1/DTD/svg11.dtd">
<svg version="1.1" id="Capa_1" xmlns="http://www.w3.org/2000/svg" xmlns:xlink="http://www.w3.org/1999/xlink" x="0px" y="0px"
	 width="76.238px" height="76.238px" viewBox="0 0 76.238 76.238" style="enable-background:new 0 0 76.238 76.238;"
	 xml:space="preserve">
<g>
	<g id="Star">
		<g>
			<path d="M76.013,29.654c-0.621-1.806-2.396-3.023-4.4-3.023H49.383L42.516,6.623c-0.621-1.797-2.392-3.024-4.397-3.024
				s-3.776,1.227-4.396,3.024L26.852,26.63H4.625c-2.005,0-3.779,1.218-4.4,3.023c-0.617,1.806,0.061,3.776,1.682,4.89L19.891,46.91
				L13.02,66.916c-0.616,1.805,0.061,3.774,1.685,4.889c1.617,1.113,3.814,1.113,5.431,0l17.983-12.365l17.983,12.365
				c0.81,0.557,1.765,0.835,2.716,0.835c0.955,0,1.91-0.278,2.72-0.835c1.621-1.113,2.298-3.084,1.681-4.889l-6.87-20.008
				l17.983-12.365C75.952,33.43,76.629,31.459,76.013,29.654z"/>
		</g>
	</g>
</g>
<g>
</g>
<g>
</g>
<g>
</g>
<g>
</g>
<g>
</g>
<g>
</g>
<g>
</g>
<g>
</g>
<g>
</g>
<g>
</g>
<g>
</g>
<g>
</g>
<g>
</g>
<g>
</g>
<g>
</g>
</svg>
