<svg xmlns="http://www.w3.org/2000/svg" xmlns:xlink="http://www.w3.org/1999/xlink" viewBox="0 0 52 52">
  <defs>
    <style>
      .cls-1 {
        fill: url(#linear-gradient);
      }

      .cls-2 {
        fill: #fff;
      }

      .cls-3 {
        filter: url(#Path_6);
      }
    </style>
    <linearGradient id="linear-gradient" y1="-22.145" x2="1" y2="-22.145" gradientUnits="objectBoundingBox">
      <stop offset="0" stop-color="#ff6dec"/>
      <stop offset="1" stop-color="#ff4470"/>
    </linearGradient>
    <filter id="Path_6" x="0" y="0" width="52" height="52" filterUnits="userSpaceOnUse">
      <feOffset dy="1" input="SourceAlpha"/>
      <feGaussianBlur stdDeviation="2" result="blur"/>
      <feFlood flood-color="#ff4d8b" flood-opacity="0.29"/>
      <feComposite operator="in" in2="blur"/>
      <feComposite in="SourceGraphic"/>
    </filter>
  </defs>
  <g id="heart_1_" data-name="heart (1)" transform="translate(6 5)">
    <g class="cls-3" transform="matrix(1, 0, 0, 1, -6, -5)">
      <path id="Path_6-2" data-name="Path 6" class="cls-1" d="M40,20A20,20,0,1,1,20,0,20,20,0,0,1,40,20Zm0,0" transform="translate(6 5)"/>
    </g>
    <path id="Path_7" data-name="Path 7" class="cls-2" d="M70.082,139.582a1.058,1.058,0,0,1-.547-.153C60.174,133.758,56,128.962,56,123.879a8.506,8.506,0,0,1,2.077-5.671,7.247,7.247,0,0,1,5.492-2.462,7.342,7.342,0,0,1,5.922,3.013,10.1,10.1,0,0,1,.591.845,10.1,10.1,0,0,1,.591-.845,7.342,7.342,0,0,1,5.922-3.013,7.248,7.248,0,0,1,5.492,2.462,8.505,8.505,0,0,1,2.077,5.671c0,5.083-4.174,9.879-13.535,15.55a1.058,1.058,0,0,1-.547.153Zm-6.513-21.723c-3.111,0-5.457,2.588-5.457,6.02,0,2.1.958,4.185,2.929,6.385a41.188,41.188,0,0,0,9.041,7.024,41.188,41.188,0,0,0,9.041-7.024c1.971-2.2,2.929-4.288,2.929-6.385,0-3.432-2.346-6.02-5.457-6.02a5.219,5.219,0,0,0-4.218,2.152,8.252,8.252,0,0,0-1.288,2.323,1.058,1.058,0,0,1-1.007.737h0a1.055,1.055,0,0,1-1.006-.74,8.249,8.249,0,0,0-1.287-2.32,5.219,5.219,0,0,0-4.218-2.152Zm0,0" transform="translate(-50.285 -105.46)"/>
  </g>
</svg>
