<svg xmlns="http://www.w3.org/2000/svg" xmlns:xlink="http://www.w3.org/1999/xlink" viewBox="0 0 12 10.16">
  <defs>
    <style>
      .cls-1 {
        clip-path: url(#clip-icon_heart);
      }

      .cls-2 {
        fill: #a1a1a1;
      }

      .cls-3 {
        fill: rgba(255,255,255,0);
      }
    </style>
    <clipPath id="clip-icon_heart">
      <rect width="12" height="10.16"/>
    </clipPath>
  </defs>
  <g id="icon_heart" data-name="icon heart" class="cls-1">
    <rect class="cls-3" width="12" height="10.16"/>
    <g id="heart" transform="translate(0 -39.221)">
      <g id="Group_6" data-name="Group 6" transform="translate(0 39.221)">
        <path id="Path_4" data-name="Path 4" class="cls-2" d="M8.766,39.221a3.137,3.137,0,0,0-2.531,1.287c-.088.112-.166.225-.235.333-.069-.109-.147-.221-.235-.333a3.137,3.137,0,0,0-2.531-1.287A3.311,3.311,0,0,0,0,42.695c0,2.166,1.776,4.208,5.757,6.62a.469.469,0,0,0,.486,0C10.224,46.9,12,44.861,12,42.695A3.311,3.311,0,0,0,8.766,39.221Zm1.058,6.171A17.45,17.45,0,0,1,6,48.364a17.45,17.45,0,0,1-3.824-2.972,4.078,4.078,0,0,1-1.239-2.7,2.379,2.379,0,0,1,2.3-2.536,2.2,2.2,0,0,1,1.775.9,3.482,3.482,0,0,1,.544.98.469.469,0,0,0,.895,0,3.476,3.476,0,0,1,.527-.958,2.2,2.2,0,0,1,1.792-.927,2.379,2.379,0,0,1,2.3,2.536A4.078,4.078,0,0,1,9.824,45.392Z" transform="translate(0 -39.221)"/>
      </g>
    </g>
  </g>
</svg>
